<mxfile host="app.diagrams.net" modified="2022-07-16T10:29:36.410Z" agent="5.0 (Macintosh; Intel Mac OS X 10_15_7) AppleWebKit/537.36 (KHTML, like Gecko) Chrome/103.0.0.0 Safari/537.36" etag="GrI8fOeZVIhqL6ThROVq" version="20.0.4" type="github" pages="3">
  <diagram id="C5RBs43oDa-KdzZeNtuy" name="Diff">
    <mxGraphModel dx="3546" dy="1178" grid="1" gridSize="10" guides="0" tooltips="1" connect="1" arrows="1" fold="1" page="1" pageScale="1" pageWidth="827" pageHeight="1169" math="0" shadow="0">
      <root>
        <mxCell id="WIyWlLk6GJQsqaUBKTNV-0" />
        <mxCell id="WIyWlLk6GJQsqaUBKTNV-1" parent="WIyWlLk6GJQsqaUBKTNV-0" />
        <mxCell id="gv2cUn-TJVEhlQLOBf1I-4" style="edgeStyle=orthogonalEdgeStyle;rounded=0;orthogonalLoop=1;jettySize=auto;html=1;entryX=0.5;entryY=0;entryDx=0;entryDy=0;fontColor=#000000;" parent="WIyWlLk6GJQsqaUBKTNV-1" source="gv2cUn-TJVEhlQLOBf1I-1" target="gv2cUn-TJVEhlQLOBf1I-3" edge="1">
          <mxGeometry relative="1" as="geometry" />
        </mxCell>
        <mxCell id="gv2cUn-TJVEhlQLOBf1I-1" value="updateChildren start" style="ellipse;whiteSpace=wrap;html=1;labelBorderColor=none;fillColor=#6d8764;strokeColor=#3A5431;fontColor=#ffffff;" parent="WIyWlLk6GJQsqaUBKTNV-1" vertex="1">
          <mxGeometry x="330" y="120" width="120" height="80" as="geometry" />
        </mxCell>
        <mxCell id="afDxlxrPL6SV1MimDMB3-63" value="N" style="edgeStyle=orthogonalEdgeStyle;rounded=0;orthogonalLoop=1;jettySize=auto;html=1;entryX=0.5;entryY=0;entryDx=0;entryDy=0;" parent="WIyWlLk6GJQsqaUBKTNV-1" source="gv2cUn-TJVEhlQLOBf1I-3" target="gv2cUn-TJVEhlQLOBf1I-115" edge="1">
          <mxGeometry relative="1" as="geometry" />
        </mxCell>
        <mxCell id="gv2cUn-TJVEhlQLOBf1I-3" value="&lt;div style=&quot;font-family: Consolas, &amp;quot;Courier New&amp;quot;, monospace; font-size: 14px; line-height: 19px;&quot;&gt;&lt;span style=&quot;background-color: rgb(255, 255, 255);&quot;&gt;OStartI &amp;lt;= OEndI&amp;nbsp;&lt;/span&gt;&lt;/div&gt;&lt;div style=&quot;font-family: Consolas, &amp;quot;Courier New&amp;quot;, monospace; font-size: 14px; line-height: 19px;&quot;&gt;&lt;span style=&quot;background-color: rgb(255, 255, 255);&quot;&gt;&amp;amp;&amp;amp; NStartI &amp;lt;= NEndI&lt;/span&gt;&lt;/div&gt;" style="rhombus;whiteSpace=wrap;html=1;" parent="WIyWlLk6GJQsqaUBKTNV-1" vertex="1">
          <mxGeometry x="282.5" y="250" width="215" height="80" as="geometry" />
        </mxCell>
        <mxCell id="gv2cUn-TJVEhlQLOBf1I-5" value="&lt;div style=&quot;font-family: Consolas, &amp;quot;Courier New&amp;quot;, monospace; font-size: 14px; line-height: 19px;&quot;&gt;&lt;span style=&quot;background-color: rgb(255, 255, 255);&quot;&gt;OStart?&lt;/span&gt;&lt;/div&gt;" style="rhombus;whiteSpace=wrap;html=1;labelBackgroundColor=#FFFFFF;fontColor=#000000;" parent="WIyWlLk6GJQsqaUBKTNV-1" vertex="1">
          <mxGeometry x="325" y="380" width="130" height="80" as="geometry" />
        </mxCell>
        <mxCell id="afDxlxrPL6SV1MimDMB3-74" style="edgeStyle=orthogonalEdgeStyle;rounded=0;orthogonalLoop=1;jettySize=auto;html=1;" parent="WIyWlLk6GJQsqaUBKTNV-1" source="gv2cUn-TJVEhlQLOBf1I-8" edge="1">
          <mxGeometry relative="1" as="geometry">
            <mxPoint x="390" y="220" as="targetPoint" />
            <Array as="points">
              <mxPoint x="246" y="600" />
              <mxPoint x="-670" y="600" />
              <mxPoint x="-670" y="220" />
            </Array>
          </mxGeometry>
        </mxCell>
        <mxCell id="gv2cUn-TJVEhlQLOBf1I-8" value="OStart→" style="whiteSpace=wrap;html=1;labelBackgroundColor=none;fillColor=#d5e8d4;gradientColor=#97d077;strokeColor=#82b366;" parent="WIyWlLk6GJQsqaUBKTNV-1" vertex="1">
          <mxGeometry x="186" y="480" width="120" height="60" as="geometry" />
        </mxCell>
        <mxCell id="gv2cUn-TJVEhlQLOBf1I-11" value="&lt;div style=&quot;font-family: Consolas, &amp;quot;Courier New&amp;quot;, monospace; font-size: 14px; line-height: 19px;&quot;&gt;&lt;span style=&quot;background-color: rgb(255, 255, 255);&quot;&gt;OEnd?&lt;/span&gt;&lt;/div&gt;" style="rhombus;whiteSpace=wrap;html=1;labelBackgroundColor=#FFFFFF;fontColor=#000000;" parent="WIyWlLk6GJQsqaUBKTNV-1" vertex="1">
          <mxGeometry x="460" y="470" width="130" height="80" as="geometry" />
        </mxCell>
        <mxCell id="gv2cUn-TJVEhlQLOBf1I-20" value="" style="endArrow=classic;html=1;rounded=0;fontColor=#000000;strokeColor=default;entryX=0.5;entryY=0;entryDx=0;entryDy=0;exitX=1;exitY=0.5;exitDx=0;exitDy=0;" parent="WIyWlLk6GJQsqaUBKTNV-1" source="gv2cUn-TJVEhlQLOBf1I-5" target="gv2cUn-TJVEhlQLOBf1I-11" edge="1">
          <mxGeometry relative="1" as="geometry">
            <mxPoint x="460" y="420" as="sourcePoint" />
            <mxPoint x="560" y="420" as="targetPoint" />
            <Array as="points">
              <mxPoint x="525" y="420" />
            </Array>
          </mxGeometry>
        </mxCell>
        <mxCell id="gv2cUn-TJVEhlQLOBf1I-21" value="Y" style="edgeLabel;resizable=0;html=1;align=center;verticalAlign=middle;labelBackgroundColor=#FFFFFF;fontColor=#000000;" parent="gv2cUn-TJVEhlQLOBf1I-20" connectable="0" vertex="1">
          <mxGeometry relative="1" as="geometry" />
        </mxCell>
        <mxCell id="gv2cUn-TJVEhlQLOBf1I-24" value="" style="endArrow=classic;html=1;rounded=0;fontColor=#000000;strokeColor=default;exitX=0;exitY=0.5;exitDx=0;exitDy=0;entryX=0.5;entryY=0;entryDx=0;entryDy=0;edgeStyle=orthogonalEdgeStyle;" parent="WIyWlLk6GJQsqaUBKTNV-1" source="gv2cUn-TJVEhlQLOBf1I-5" target="gv2cUn-TJVEhlQLOBf1I-8" edge="1">
          <mxGeometry relative="1" as="geometry">
            <mxPoint x="340" y="450" as="sourcePoint" />
            <mxPoint x="440" y="450" as="targetPoint" />
          </mxGeometry>
        </mxCell>
        <mxCell id="gv2cUn-TJVEhlQLOBf1I-25" value="N" style="edgeLabel;resizable=0;html=1;align=center;verticalAlign=middle;labelBackgroundColor=#FFFFFF;fontColor=#000000;" parent="gv2cUn-TJVEhlQLOBf1I-24" connectable="0" vertex="1">
          <mxGeometry relative="1" as="geometry" />
        </mxCell>
        <mxCell id="afDxlxrPL6SV1MimDMB3-75" style="edgeStyle=orthogonalEdgeStyle;rounded=0;orthogonalLoop=1;jettySize=auto;html=1;" parent="WIyWlLk6GJQsqaUBKTNV-1" source="gv2cUn-TJVEhlQLOBf1I-33" edge="1">
          <mxGeometry relative="1" as="geometry">
            <mxPoint x="390" y="220" as="targetPoint" />
            <Array as="points">
              <mxPoint x="-670" y="600" />
              <mxPoint x="-670" y="220" />
            </Array>
          </mxGeometry>
        </mxCell>
        <mxCell id="gv2cUn-TJVEhlQLOBf1I-33" value="←OEnd" style="whiteSpace=wrap;html=1;labelBackgroundColor=none;fillColor=#d5e8d4;gradientColor=#97d077;strokeColor=#82b366;" parent="WIyWlLk6GJQsqaUBKTNV-1" vertex="1">
          <mxGeometry x="306" y="570" width="120" height="60" as="geometry" />
        </mxCell>
        <mxCell id="gv2cUn-TJVEhlQLOBf1I-35" value="" style="endArrow=classic;html=1;rounded=0;fontColor=#000000;strokeColor=default;entryX=0.5;entryY=0;entryDx=0;entryDy=0;exitX=1;exitY=0.5;exitDx=0;exitDy=0;" parent="WIyWlLk6GJQsqaUBKTNV-1" source="gv2cUn-TJVEhlQLOBf1I-11" target="gv2cUn-TJVEhlQLOBf1I-39" edge="1">
          <mxGeometry relative="1" as="geometry">
            <mxPoint x="591" y="510" as="sourcePoint" />
            <mxPoint x="661" y="560" as="targetPoint" />
            <Array as="points">
              <mxPoint x="660" y="510" />
            </Array>
          </mxGeometry>
        </mxCell>
        <mxCell id="gv2cUn-TJVEhlQLOBf1I-37" value="" style="endArrow=classic;html=1;rounded=0;fontColor=#000000;strokeColor=default;exitX=0;exitY=0.5;exitDx=0;exitDy=0;entryX=0.5;entryY=0;entryDx=0;entryDy=0;" parent="WIyWlLk6GJQsqaUBKTNV-1" source="gv2cUn-TJVEhlQLOBf1I-11" target="gv2cUn-TJVEhlQLOBf1I-33" edge="1">
          <mxGeometry relative="1" as="geometry">
            <mxPoint x="461" y="510" as="sourcePoint" />
            <mxPoint x="576" y="540" as="targetPoint" />
            <Array as="points">
              <mxPoint x="366" y="510" />
            </Array>
          </mxGeometry>
        </mxCell>
        <mxCell id="gv2cUn-TJVEhlQLOBf1I-38" value="N" style="edgeLabel;resizable=0;html=1;align=center;verticalAlign=middle;labelBackgroundColor=#FFFFFF;fontColor=#000000;" parent="gv2cUn-TJVEhlQLOBf1I-37" connectable="0" vertex="1">
          <mxGeometry relative="1" as="geometry" />
        </mxCell>
        <mxCell id="afDxlxrPL6SV1MimDMB3-59" value="N" style="edgeStyle=orthogonalEdgeStyle;rounded=0;orthogonalLoop=1;jettySize=auto;html=1;entryX=0.5;entryY=0;entryDx=0;entryDy=0;" parent="WIyWlLk6GJQsqaUBKTNV-1" source="gv2cUn-TJVEhlQLOBf1I-39" target="gv2cUn-TJVEhlQLOBf1I-41" edge="1">
          <mxGeometry relative="1" as="geometry" />
        </mxCell>
        <mxCell id="afDxlxrPL6SV1MimDMB3-65" value="Y" style="edgeStyle=orthogonalEdgeStyle;rounded=0;orthogonalLoop=1;jettySize=auto;html=1;entryX=0;entryY=0.5;entryDx=0;entryDy=0;" parent="WIyWlLk6GJQsqaUBKTNV-1" source="gv2cUn-TJVEhlQLOBf1I-39" target="gv2cUn-TJVEhlQLOBf1I-40" edge="1">
          <mxGeometry relative="1" as="geometry" />
        </mxCell>
        <mxCell id="gv2cUn-TJVEhlQLOBf1I-39" value="&lt;div style=&quot;font-family: Consolas, &amp;quot;Courier New&amp;quot;, monospace; font-size: 14px; line-height: 19px;&quot;&gt;&lt;div style=&quot;line-height: 19px;&quot;&gt;&lt;span style=&quot;background-color: rgb(255, 255, 255);&quot;&gt;OStart == NStart&lt;/span&gt;&lt;/div&gt;&lt;/div&gt;" style="rhombus;whiteSpace=wrap;html=1;labelBackgroundColor=#FFFFFF;fontColor=#000000;" parent="WIyWlLk6GJQsqaUBKTNV-1" vertex="1">
          <mxGeometry x="595" y="560" width="130" height="80" as="geometry" />
        </mxCell>
        <mxCell id="gv2cUn-TJVEhlQLOBf1I-100" style="edgeStyle=orthogonalEdgeStyle;rounded=0;orthogonalLoop=1;jettySize=auto;html=1;fontColor=default;strokeColor=default;entryX=0.5;entryY=1;entryDx=0;entryDy=0;" parent="WIyWlLk6GJQsqaUBKTNV-1" source="gv2cUn-TJVEhlQLOBf1I-40" target="gv2cUn-TJVEhlQLOBf1I-101" edge="1">
          <mxGeometry relative="1" as="geometry">
            <mxPoint x="1044" y="770" as="targetPoint" />
          </mxGeometry>
        </mxCell>
        <mxCell id="afDxlxrPL6SV1MimDMB3-69" style="edgeStyle=orthogonalEdgeStyle;rounded=0;orthogonalLoop=1;jettySize=auto;html=1;entryX=0.5;entryY=0;entryDx=0;entryDy=0;" parent="WIyWlLk6GJQsqaUBKTNV-1" source="gv2cUn-TJVEhlQLOBf1I-40" target="gv2cUn-TJVEhlQLOBf1I-128" edge="1">
          <mxGeometry relative="1" as="geometry">
            <Array as="points">
              <mxPoint x="1320" y="690" />
              <mxPoint x="1320" y="40" />
              <mxPoint x="1945" y="40" />
            </Array>
          </mxGeometry>
        </mxCell>
        <mxCell id="gv2cUn-TJVEhlQLOBf1I-40" value="&lt;div style=&quot;font-family: Consolas, &amp;quot;Courier New&amp;quot;, monospace; font-size: 14px; line-height: 19px;&quot;&gt;&lt;span style=&quot;background-color: rgb(255, 255, 255);&quot;&gt;patchVnode(...)&lt;/span&gt;&lt;/div&gt;" style="whiteSpace=wrap;html=1;fontColor=#000000;labelBackgroundColor=#FFFFFF;" parent="WIyWlLk6GJQsqaUBKTNV-1" vertex="1">
          <mxGeometry x="850" y="660" width="120" height="60" as="geometry" />
        </mxCell>
        <mxCell id="afDxlxrPL6SV1MimDMB3-60" value="N" style="edgeStyle=orthogonalEdgeStyle;rounded=0;orthogonalLoop=1;jettySize=auto;html=1;entryX=0.5;entryY=0;entryDx=0;entryDy=0;" parent="WIyWlLk6GJQsqaUBKTNV-1" source="gv2cUn-TJVEhlQLOBf1I-41" target="gv2cUn-TJVEhlQLOBf1I-53" edge="1">
          <mxGeometry relative="1" as="geometry" />
        </mxCell>
        <mxCell id="afDxlxrPL6SV1MimDMB3-64" value="Y" style="edgeStyle=orthogonalEdgeStyle;rounded=0;orthogonalLoop=1;jettySize=auto;html=1;entryX=0;entryY=0.5;entryDx=0;entryDy=0;" parent="WIyWlLk6GJQsqaUBKTNV-1" source="gv2cUn-TJVEhlQLOBf1I-41" target="gv2cUn-TJVEhlQLOBf1I-40" edge="1">
          <mxGeometry relative="1" as="geometry" />
        </mxCell>
        <mxCell id="gv2cUn-TJVEhlQLOBf1I-41" value="&lt;div style=&quot;font-family: Consolas, &amp;quot;Courier New&amp;quot;, monospace; font-size: 14px; line-height: 19px;&quot;&gt;&lt;div style=&quot;color: rgb(212, 212, 212); line-height: 19px;&quot;&gt;&lt;span style=&quot;color: rgb(0, 0, 0); background-color: rgb(255, 255, 255);&quot;&gt;OEnd == NEnd&lt;/span&gt;&lt;br&gt;&lt;/div&gt;&lt;/div&gt;" style="rhombus;whiteSpace=wrap;html=1;labelBackgroundColor=#FFFFFF;fontColor=#000000;" parent="WIyWlLk6GJQsqaUBKTNV-1" vertex="1">
          <mxGeometry x="460" y="650" width="130" height="80" as="geometry" />
        </mxCell>
        <mxCell id="afDxlxrPL6SV1MimDMB3-61" value="N" style="edgeStyle=orthogonalEdgeStyle;rounded=0;orthogonalLoop=1;jettySize=auto;html=1;exitX=0;exitY=0.5;exitDx=0;exitDy=0;entryX=0.5;entryY=0;entryDx=0;entryDy=0;" parent="WIyWlLk6GJQsqaUBKTNV-1" source="gv2cUn-TJVEhlQLOBf1I-53" target="gv2cUn-TJVEhlQLOBf1I-55" edge="1">
          <mxGeometry relative="1" as="geometry" />
        </mxCell>
        <mxCell id="afDxlxrPL6SV1MimDMB3-81" value="Y" style="edgeStyle=orthogonalEdgeStyle;rounded=0;orthogonalLoop=1;jettySize=auto;html=1;entryX=0;entryY=0.5;entryDx=0;entryDy=0;" parent="WIyWlLk6GJQsqaUBKTNV-1" source="gv2cUn-TJVEhlQLOBf1I-53" target="afDxlxrPL6SV1MimDMB3-40" edge="1">
          <mxGeometry relative="1" as="geometry">
            <Array as="points">
              <mxPoint x="630" y="780" />
              <mxPoint x="630" y="1160" />
            </Array>
          </mxGeometry>
        </mxCell>
        <mxCell id="gv2cUn-TJVEhlQLOBf1I-53" value="&lt;div style=&quot;font-family: Consolas, &amp;quot;Courier New&amp;quot;, monospace; font-size: 14px; line-height: 19px;&quot;&gt;&lt;div style=&quot;line-height: 19px;&quot;&gt;&lt;font&gt;O&lt;/font&gt;&lt;span style=&quot;&quot;&gt;Start&lt;/span&gt;&lt;font&gt;&amp;nbsp;==&amp;nbsp;&lt;/font&gt;&lt;span style=&quot;&quot;&gt;NEnd&lt;/span&gt;&lt;/div&gt;&lt;/div&gt;" style="rhombus;whiteSpace=wrap;html=1;labelBackgroundColor=none;fontColor=default;flipH=0;flipV=1;" parent="WIyWlLk6GJQsqaUBKTNV-1" vertex="1">
          <mxGeometry x="328" y="740" width="130" height="80" as="geometry" />
        </mxCell>
        <mxCell id="afDxlxrPL6SV1MimDMB3-62" value="N" style="edgeStyle=orthogonalEdgeStyle;rounded=0;orthogonalLoop=1;jettySize=auto;html=1;entryX=0.5;entryY=0;entryDx=0;entryDy=0;" parent="WIyWlLk6GJQsqaUBKTNV-1" source="gv2cUn-TJVEhlQLOBf1I-55" target="gv2cUn-TJVEhlQLOBf1I-66" edge="1">
          <mxGeometry relative="1" as="geometry" />
        </mxCell>
        <mxCell id="afDxlxrPL6SV1MimDMB3-66" value="Y" style="edgeStyle=orthogonalEdgeStyle;rounded=0;orthogonalLoop=1;jettySize=auto;html=1;entryX=0;entryY=0.5;entryDx=0;entryDy=0;" parent="WIyWlLk6GJQsqaUBKTNV-1" target="afDxlxrPL6SV1MimDMB3-40" edge="1">
          <mxGeometry relative="1" as="geometry">
            <mxPoint x="298.93499999999995" y="870.04" as="sourcePoint" />
            <mxPoint x="599" y="1290" as="targetPoint" />
            <Array as="points">
              <mxPoint x="630" y="870" />
              <mxPoint x="630" y="1160" />
            </Array>
          </mxGeometry>
        </mxCell>
        <mxCell id="gv2cUn-TJVEhlQLOBf1I-55" value="&lt;div style=&quot;font-family: Consolas, &amp;quot;Courier New&amp;quot;, monospace; font-size: 14px; line-height: 19px;&quot;&gt;&lt;div style=&quot;line-height: 19px;&quot;&gt;&lt;font&gt;O&lt;/font&gt;&lt;span style=&quot;&quot;&gt;End ==&lt;/span&gt;&lt;font&gt;&amp;nbsp;&lt;/font&gt;&lt;span style=&quot;&quot;&gt;NStart&lt;/span&gt;&lt;/div&gt;&lt;/div&gt;" style="rhombus;whiteSpace=wrap;html=1;labelBackgroundColor=none;fontColor=default;" parent="WIyWlLk6GJQsqaUBKTNV-1" vertex="1">
          <mxGeometry x="170" y="830" width="130" height="80" as="geometry" />
        </mxCell>
        <mxCell id="gv2cUn-TJVEhlQLOBf1I-70" style="edgeStyle=orthogonalEdgeStyle;rounded=0;orthogonalLoop=1;jettySize=auto;html=1;entryX=0.5;entryY=0;entryDx=0;entryDy=0;fontColor=default;strokeColor=default;" parent="WIyWlLk6GJQsqaUBKTNV-1" source="gv2cUn-TJVEhlQLOBf1I-66" target="gv2cUn-TJVEhlQLOBf1I-69" edge="1">
          <mxGeometry relative="1" as="geometry" />
        </mxCell>
        <mxCell id="gv2cUn-TJVEhlQLOBf1I-66" value="&lt;div style=&quot;font-family: Consolas, &amp;quot;Courier New&amp;quot;, monospace; font-size: 14px; line-height: 19px;&quot;&gt;cal &amp;amp; assgin&lt;/div&gt;&lt;div style=&quot;font-family: Consolas, &amp;quot;Courier New&amp;quot;, monospace; font-size: 14px; line-height: 19px;&quot;&gt;&lt;span style=&quot;&quot;&gt;createKeyToOldIdx,&lt;/span&gt;&lt;/div&gt;&lt;div style=&quot;font-family: Consolas, &amp;quot;Courier New&amp;quot;, monospace; font-size: 14px; line-height: 19px;&quot;&gt;idxInOld&lt;/div&gt;" style="rounded=0;whiteSpace=wrap;html=1;labelBackgroundColor=default;fontColor=default;" parent="WIyWlLk6GJQsqaUBKTNV-1" vertex="1">
          <mxGeometry x="10" y="920" width="140" height="60" as="geometry" />
        </mxCell>
        <mxCell id="gv2cUn-TJVEhlQLOBf1I-69" value="&lt;div style=&quot;font-family: Consolas, &amp;quot;Courier New&amp;quot;, monospace; font-size: 14px; line-height: 19px;&quot;&gt;&lt;div style=&quot;line-height: 19px;&quot;&gt;&lt;div style=&quot;line-height: 19px;&quot;&gt;&lt;span style=&quot;&quot;&gt;idxInOld&lt;/span&gt;&lt;span style=&quot;&quot;&gt;?&lt;/span&gt;&lt;/div&gt;&lt;/div&gt;&lt;/div&gt;" style="rhombus;whiteSpace=wrap;html=1;labelBackgroundColor=none;fontColor=default;" parent="WIyWlLk6GJQsqaUBKTNV-1" vertex="1">
          <mxGeometry x="12.5" y="1020" width="135" height="80" as="geometry" />
        </mxCell>
        <mxCell id="gv2cUn-TJVEhlQLOBf1I-81" value="" style="endArrow=classic;html=1;rounded=0;fontColor=#000000;strokeColor=default;entryX=0.5;entryY=0;entryDx=0;entryDy=0;exitX=1;exitY=0.5;exitDx=0;exitDy=0;edgeStyle=orthogonalEdgeStyle;" parent="WIyWlLk6GJQsqaUBKTNV-1" source="gv2cUn-TJVEhlQLOBf1I-69" target="gv2cUn-TJVEhlQLOBf1I-87" edge="1">
          <mxGeometry relative="1" as="geometry">
            <mxPoint x="150" y="1060" as="sourcePoint" />
            <mxPoint x="240" y="1120" as="targetPoint" />
            <Array as="points">
              <mxPoint x="238" y="1060" />
              <mxPoint x="238" y="1120" />
            </Array>
          </mxGeometry>
        </mxCell>
        <mxCell id="gv2cUn-TJVEhlQLOBf1I-82" value="Y" style="edgeLabel;resizable=0;html=1;align=center;verticalAlign=middle;labelBackgroundColor=#FFFFFF;fontColor=#000000;" parent="gv2cUn-TJVEhlQLOBf1I-81" connectable="0" vertex="1">
          <mxGeometry relative="1" as="geometry" />
        </mxCell>
        <mxCell id="gv2cUn-TJVEhlQLOBf1I-83" value="" style="endArrow=classic;html=1;rounded=0;fontColor=#000000;strokeColor=default;edgeStyle=orthogonalEdgeStyle;exitX=0;exitY=0.5;exitDx=0;exitDy=0;entryX=0.5;entryY=0;entryDx=0;entryDy=0;" parent="WIyWlLk6GJQsqaUBKTNV-1" source="gv2cUn-TJVEhlQLOBf1I-69" target="gv2cUn-TJVEhlQLOBf1I-85" edge="1">
          <mxGeometry relative="1" as="geometry">
            <mxPoint x="10" y="1060" as="sourcePoint" />
            <mxPoint x="-80" y="1120" as="targetPoint" />
          </mxGeometry>
        </mxCell>
        <mxCell id="gv2cUn-TJVEhlQLOBf1I-84" value="N" style="edgeLabel;resizable=0;html=1;align=center;verticalAlign=middle;labelBackgroundColor=#FFFFFF;fontColor=#000000;" parent="gv2cUn-TJVEhlQLOBf1I-83" connectable="0" vertex="1">
          <mxGeometry relative="1" as="geometry" />
        </mxCell>
        <mxCell id="gv2cUn-TJVEhlQLOBf1I-97" style="edgeStyle=orthogonalEdgeStyle;rounded=0;orthogonalLoop=1;jettySize=auto;html=1;entryX=0.5;entryY=0;entryDx=0;entryDy=0;fontColor=default;strokeColor=default;" parent="WIyWlLk6GJQsqaUBKTNV-1" source="gv2cUn-TJVEhlQLOBf1I-85" target="gv2cUn-TJVEhlQLOBf1I-96" edge="1">
          <mxGeometry relative="1" as="geometry" />
        </mxCell>
        <mxCell id="gv2cUn-TJVEhlQLOBf1I-85" value="&lt;div style=&quot;font-family: Consolas, &amp;quot;Courier New&amp;quot;, monospace; font-size: 14px; line-height: 19px;&quot;&gt;&lt;span style=&quot;&quot;&gt;New element.&lt;/span&gt;&lt;/div&gt;" style="rounded=0;whiteSpace=wrap;html=1;labelBackgroundColor=none;fontColor=default;" parent="WIyWlLk6GJQsqaUBKTNV-1" vertex="1">
          <mxGeometry x="-240" y="1130" width="120" height="60" as="geometry" />
        </mxCell>
        <mxCell id="afDxlxrPL6SV1MimDMB3-43" value="Y" style="edgeStyle=orthogonalEdgeStyle;rounded=0;orthogonalLoop=1;jettySize=auto;html=1;entryX=0;entryY=0.5;entryDx=0;entryDy=0;" parent="WIyWlLk6GJQsqaUBKTNV-1" target="afDxlxrPL6SV1MimDMB3-40" edge="1">
          <mxGeometry relative="1" as="geometry">
            <mxPoint x="304" y="1160" as="sourcePoint" />
            <mxPoint x="599" y="1290" as="targetPoint" />
            <Array as="points">
              <mxPoint x="730" y="1160" />
              <mxPoint x="730" y="1160" />
            </Array>
          </mxGeometry>
        </mxCell>
        <mxCell id="gv2cUn-TJVEhlQLOBf1I-87" value="&lt;div style=&quot;font-family: Consolas, &amp;quot;Courier New&amp;quot;, monospace; font-size: 14px; line-height: 19px;&quot;&gt;&lt;div style=&quot;line-height: 19px;&quot;&gt;&lt;div style=&quot;line-height: 19px;&quot;&gt;toMove == NStart&lt;/div&gt;&lt;/div&gt;&lt;/div&gt;" style="rhombus;whiteSpace=wrap;html=1;labelBackgroundColor=none;fontColor=default;" parent="WIyWlLk6GJQsqaUBKTNV-1" vertex="1">
          <mxGeometry x="170" y="1120" width="135" height="80" as="geometry" />
        </mxCell>
        <mxCell id="gv2cUn-TJVEhlQLOBf1I-93" value="" style="endArrow=classic;html=1;rounded=0;fontColor=#000000;strokeColor=default;edgeStyle=orthogonalEdgeStyle;exitX=0;exitY=0.5;exitDx=0;exitDy=0;entryX=0.5;entryY=0;entryDx=0;entryDy=0;" parent="WIyWlLk6GJQsqaUBKTNV-1" source="gv2cUn-TJVEhlQLOBf1I-87" target="gv2cUn-TJVEhlQLOBf1I-95" edge="1">
          <mxGeometry relative="1" as="geometry">
            <mxPoint x="162.5" y="1159.05" as="sourcePoint" />
            <mxPoint x="70" y="1229.05" as="targetPoint" />
          </mxGeometry>
        </mxCell>
        <mxCell id="gv2cUn-TJVEhlQLOBf1I-94" value="N" style="edgeLabel;resizable=0;html=1;align=center;verticalAlign=middle;labelBackgroundColor=#FFFFFF;fontColor=#000000;" parent="gv2cUn-TJVEhlQLOBf1I-93" connectable="0" vertex="1">
          <mxGeometry relative="1" as="geometry" />
        </mxCell>
        <mxCell id="gv2cUn-TJVEhlQLOBf1I-98" style="edgeStyle=orthogonalEdgeStyle;rounded=0;orthogonalLoop=1;jettySize=auto;html=1;entryX=1;entryY=0.5;entryDx=0;entryDy=0;fontColor=default;strokeColor=default;" parent="WIyWlLk6GJQsqaUBKTNV-1" source="gv2cUn-TJVEhlQLOBf1I-95" target="gv2cUn-TJVEhlQLOBf1I-96" edge="1">
          <mxGeometry relative="1" as="geometry" />
        </mxCell>
        <mxCell id="gv2cUn-TJVEhlQLOBf1I-95" value="&lt;div style=&quot;font-family: Consolas, &amp;quot;Courier New&amp;quot;, monospace; font-size: 14px; line-height: 19px;&quot;&gt;&lt;span style=&quot;&quot;&gt;same key but different element. treat as new element.&lt;/span&gt;&lt;/div&gt;" style="rounded=0;whiteSpace=wrap;html=1;labelBackgroundColor=default;fontColor=default;" parent="WIyWlLk6GJQsqaUBKTNV-1" vertex="1">
          <mxGeometry x="-53.75" y="1230" width="267.5" height="90" as="geometry" />
        </mxCell>
        <mxCell id="afDxlxrPL6SV1MimDMB3-71" style="edgeStyle=orthogonalEdgeStyle;rounded=0;orthogonalLoop=1;jettySize=auto;html=1;entryX=0;entryY=0.5;entryDx=0;entryDy=0;" parent="WIyWlLk6GJQsqaUBKTNV-1" source="gv2cUn-TJVEhlQLOBf1I-96" target="afDxlxrPL6SV1MimDMB3-46" edge="1">
          <mxGeometry relative="1" as="geometry">
            <mxPoint x="80" y="1510" as="targetPoint" />
            <Array as="points">
              <mxPoint x="-180" y="1450" />
            </Array>
          </mxGeometry>
        </mxCell>
        <mxCell id="gv2cUn-TJVEhlQLOBf1I-96" value="&lt;span style=&quot;font-family: Consolas, &amp;quot;Courier New&amp;quot;, monospace; font-size: 14px;&quot;&gt;createElm(...)&lt;/span&gt;" style="rounded=0;whiteSpace=wrap;html=1;labelBackgroundColor=none;fontColor=#000000;fillColor=#e3c800;strokeColor=#B09500;" parent="WIyWlLk6GJQsqaUBKTNV-1" vertex="1">
          <mxGeometry x="-240" y="1245" width="120" height="60" as="geometry" />
        </mxCell>
        <mxCell id="afDxlxrPL6SV1MimDMB3-76" style="edgeStyle=orthogonalEdgeStyle;rounded=0;orthogonalLoop=1;jettySize=auto;html=1;" parent="WIyWlLk6GJQsqaUBKTNV-1" source="gv2cUn-TJVEhlQLOBf1I-101" edge="1">
          <mxGeometry relative="1" as="geometry">
            <mxPoint x="390" y="220" as="targetPoint" />
            <Array as="points">
              <mxPoint x="910" y="220" />
            </Array>
          </mxGeometry>
        </mxCell>
        <mxCell id="gv2cUn-TJVEhlQLOBf1I-101" value="involved node idx moved.&lt;br&gt;1. OStart→, NStart→&lt;br&gt;2. ←OEnd, ←NEnd" style="rounded=0;whiteSpace=wrap;html=1;labelBackgroundColor=none;fillColor=#d5e8d4;gradientColor=#97d077;strokeColor=#82b366;" parent="WIyWlLk6GJQsqaUBKTNV-1" vertex="1">
          <mxGeometry x="832.5" y="530" width="155" height="60" as="geometry" />
        </mxCell>
        <mxCell id="gv2cUn-TJVEhlQLOBf1I-110" value="" style="endArrow=classic;html=1;rounded=0;fontColor=#000000;strokeColor=default;entryX=0.5;entryY=0;entryDx=0;entryDy=0;exitX=0.5;exitY=1;exitDx=0;exitDy=0;edgeStyle=orthogonalEdgeStyle;" parent="WIyWlLk6GJQsqaUBKTNV-1" source="gv2cUn-TJVEhlQLOBf1I-3" target="gv2cUn-TJVEhlQLOBf1I-5" edge="1">
          <mxGeometry relative="1" as="geometry">
            <mxPoint x="440" y="339.9999999999999" as="sourcePoint" />
            <mxPoint x="510" y="389.9999999999999" as="targetPoint" />
          </mxGeometry>
        </mxCell>
        <mxCell id="gv2cUn-TJVEhlQLOBf1I-111" value="Y" style="edgeLabel;resizable=0;html=1;align=center;verticalAlign=middle;labelBackgroundColor=#FFFFFF;fontColor=#000000;" parent="gv2cUn-TJVEhlQLOBf1I-110" connectable="0" vertex="1">
          <mxGeometry relative="1" as="geometry" />
        </mxCell>
        <mxCell id="gv2cUn-TJVEhlQLOBf1I-115" value="&lt;div style=&quot;font-family: Consolas, &amp;quot;Courier New&amp;quot;, monospace; font-size: 14px; line-height: 19px;&quot;&gt;&lt;div style=&quot;line-height: 19px;&quot;&gt;&lt;span style=&quot;&quot;&gt;OStartI&lt;/span&gt;&amp;nbsp;&amp;gt; O&lt;span style=&quot;&quot;&gt;EndI&lt;/span&gt;&lt;/div&gt;&lt;/div&gt;" style="rhombus;whiteSpace=wrap;html=1;labelBackgroundColor=none;fontColor=default;" parent="WIyWlLk6GJQsqaUBKTNV-1" vertex="1">
          <mxGeometry x="-225" y="310" width="130" height="80" as="geometry" />
        </mxCell>
        <mxCell id="gv2cUn-TJVEhlQLOBf1I-124" style="edgeStyle=orthogonalEdgeStyle;rounded=0;orthogonalLoop=1;jettySize=auto;html=1;entryX=0.5;entryY=0;entryDx=0;entryDy=0;fontColor=default;strokeColor=default;" parent="WIyWlLk6GJQsqaUBKTNV-1" source="gv2cUn-TJVEhlQLOBf1I-116" target="gv2cUn-TJVEhlQLOBf1I-123" edge="1">
          <mxGeometry relative="1" as="geometry" />
        </mxCell>
        <mxCell id="gv2cUn-TJVEhlQLOBf1I-116" value="&lt;div style=&quot;font-family: Consolas, &amp;quot;Courier New&amp;quot;, monospace; font-size: 14px; line-height: 19px;&quot;&gt;&lt;div style=&quot;line-height: 19px;&quot;&gt;&lt;span style=&quot;&quot;&gt;NStartI&lt;/span&gt;&amp;nbsp;&amp;gt; N&lt;span style=&quot;&quot;&gt;EndI&lt;/span&gt;&lt;/div&gt;&lt;/div&gt;" style="rhombus;whiteSpace=wrap;html=1;labelBackgroundColor=none;fontColor=default;" parent="WIyWlLk6GJQsqaUBKTNV-1" vertex="1">
          <mxGeometry x="-90" y="390" width="130" height="80" as="geometry" />
        </mxCell>
        <mxCell id="gv2cUn-TJVEhlQLOBf1I-117" value="&lt;div style=&quot;font-family: Consolas, &amp;quot;Courier New&amp;quot;, monospace; font-size: 14px; line-height: 19px;&quot;&gt;&lt;span style=&quot;&quot;&gt;addVnodes(leftNewNodes)&lt;/span&gt;&lt;/div&gt;" style="whiteSpace=wrap;html=1;fontColor=#000000;labelBackgroundColor=none;fillColor=#e3c800;strokeColor=#B09500;" parent="WIyWlLk6GJQsqaUBKTNV-1" vertex="1">
          <mxGeometry x="-390" y="400" width="190" height="60" as="geometry" />
        </mxCell>
        <mxCell id="gv2cUn-TJVEhlQLOBf1I-119" value="" style="endArrow=classic;html=1;rounded=0;fontColor=#000000;strokeColor=default;exitX=0;exitY=0.5;exitDx=0;exitDy=0;entryX=0.5;entryY=0;entryDx=0;entryDy=0;edgeStyle=orthogonalEdgeStyle;" parent="WIyWlLk6GJQsqaUBKTNV-1" source="gv2cUn-TJVEhlQLOBf1I-115" target="gv2cUn-TJVEhlQLOBf1I-117" edge="1">
          <mxGeometry relative="1" as="geometry">
            <mxPoint x="-235" y="340" as="sourcePoint" />
            <mxPoint x="-330" y="400" as="targetPoint" />
          </mxGeometry>
        </mxCell>
        <mxCell id="gv2cUn-TJVEhlQLOBf1I-120" value="Y" style="edgeLabel;resizable=0;html=1;align=center;verticalAlign=middle;labelBackgroundColor=#FFFFFF;fontColor=#000000;" parent="gv2cUn-TJVEhlQLOBf1I-119" connectable="0" vertex="1">
          <mxGeometry relative="1" as="geometry" />
        </mxCell>
        <mxCell id="gv2cUn-TJVEhlQLOBf1I-121" value="" style="endArrow=classic;html=1;rounded=0;fontColor=#000000;strokeColor=default;entryX=0.5;entryY=0;entryDx=0;entryDy=0;exitX=1;exitY=0.5;exitDx=0;exitDy=0;edgeStyle=orthogonalEdgeStyle;" parent="WIyWlLk6GJQsqaUBKTNV-1" source="gv2cUn-TJVEhlQLOBf1I-115" target="gv2cUn-TJVEhlQLOBf1I-116" edge="1">
          <mxGeometry relative="1" as="geometry">
            <mxPoint x="-65" y="340" as="sourcePoint" />
            <mxPoint x="5" y="390" as="targetPoint" />
          </mxGeometry>
        </mxCell>
        <mxCell id="gv2cUn-TJVEhlQLOBf1I-122" value="N" style="edgeLabel;resizable=0;html=1;align=center;verticalAlign=middle;labelBackgroundColor=#FFFFFF;fontColor=#000000;" parent="gv2cUn-TJVEhlQLOBf1I-121" connectable="0" vertex="1">
          <mxGeometry relative="1" as="geometry" />
        </mxCell>
        <mxCell id="gv2cUn-TJVEhlQLOBf1I-123" value="&lt;div style=&quot;font-family: Consolas, &amp;quot;Courier New&amp;quot;, monospace; font-size: 14px; line-height: 19px;&quot;&gt;&lt;span style=&quot;&quot;&gt;removeVnodes(leftOldNodes)&lt;/span&gt;&lt;/div&gt;" style="whiteSpace=wrap;html=1;fontColor=#000000;labelBackgroundColor=none;fillColor=#e3c800;strokeColor=#B09500;" parent="WIyWlLk6GJQsqaUBKTNV-1" vertex="1">
          <mxGeometry x="-132.5" y="500" width="215" height="60" as="geometry" />
        </mxCell>
        <mxCell id="afDxlxrPL6SV1MimDMB3-68" style="edgeStyle=orthogonalEdgeStyle;rounded=0;orthogonalLoop=1;jettySize=auto;html=1;exitX=0.5;exitY=1;exitDx=0;exitDy=0;entryX=0.5;entryY=0;entryDx=0;entryDy=0;" parent="WIyWlLk6GJQsqaUBKTNV-1" source="gv2cUn-TJVEhlQLOBf1I-128" target="afDxlxrPL6SV1MimDMB3-2" edge="1">
          <mxGeometry relative="1" as="geometry" />
        </mxCell>
        <mxCell id="gv2cUn-TJVEhlQLOBf1I-128" value="patchVnode start" style="ellipse;whiteSpace=wrap;html=1;labelBackgroundColor=none;labelBorderColor=none;fontColor=#ffffff;fillColor=#6d8764;strokeColor=#3A5431;" parent="WIyWlLk6GJQsqaUBKTNV-1" vertex="1">
          <mxGeometry x="1885" y="120" width="120" height="80" as="geometry" />
        </mxCell>
        <mxCell id="afDxlxrPL6SV1MimDMB3-6" value="N" style="edgeStyle=orthogonalEdgeStyle;rounded=0;orthogonalLoop=1;jettySize=auto;html=1;entryX=0.5;entryY=0;entryDx=0;entryDy=0;" parent="WIyWlLk6GJQsqaUBKTNV-1" source="afDxlxrPL6SV1MimDMB3-2" target="afDxlxrPL6SV1MimDMB3-4" edge="1">
          <mxGeometry relative="1" as="geometry">
            <Array as="points">
              <mxPoint x="1815" y="270" />
            </Array>
          </mxGeometry>
        </mxCell>
        <mxCell id="afDxlxrPL6SV1MimDMB3-2" value="&lt;div style=&quot;font-family: Consolas, &amp;quot;Courier New&amp;quot;, monospace; font-size: 14px; line-height: 19px;&quot;&gt;&lt;span style=&quot;background-color: rgb(255, 255, 255);&quot;&gt;ONode === NNode&lt;/span&gt;&lt;/div&gt;" style="rhombus;whiteSpace=wrap;html=1;labelBackgroundColor=#FFFFFF;fontColor=#000000;" parent="WIyWlLk6GJQsqaUBKTNV-1" vertex="1">
          <mxGeometry x="1880" y="230" width="130" height="80" as="geometry" />
        </mxCell>
        <mxCell id="afDxlxrPL6SV1MimDMB3-10" value="N" style="edgeStyle=orthogonalEdgeStyle;rounded=0;orthogonalLoop=1;jettySize=auto;html=1;entryX=0.5;entryY=0;entryDx=0;entryDy=0;" parent="WIyWlLk6GJQsqaUBKTNV-1" source="afDxlxrPL6SV1MimDMB3-4" target="afDxlxrPL6SV1MimDMB3-9" edge="1">
          <mxGeometry relative="1" as="geometry">
            <Array as="points">
              <mxPoint x="1685" y="370" />
            </Array>
          </mxGeometry>
        </mxCell>
        <mxCell id="afDxlxrPL6SV1MimDMB3-27" value="Y" style="edgeStyle=orthogonalEdgeStyle;rounded=0;orthogonalLoop=1;jettySize=auto;html=1;entryX=0.5;entryY=0;entryDx=0;entryDy=0;" parent="WIyWlLk6GJQsqaUBKTNV-1" source="afDxlxrPL6SV1MimDMB3-4" target="afDxlxrPL6SV1MimDMB3-26" edge="1">
          <mxGeometry relative="1" as="geometry">
            <Array as="points">
              <mxPoint x="1930" y="370" />
            </Array>
          </mxGeometry>
        </mxCell>
        <mxCell id="afDxlxrPL6SV1MimDMB3-4" value="&lt;div style=&quot;font-family: Consolas, &amp;quot;Courier New&amp;quot;, monospace; font-size: 14px; line-height: 19px;&quot;&gt;&lt;span style=&quot;background-color: rgb(255, 255, 255);&quot;&gt;NNode.text?&lt;/span&gt;&lt;/div&gt;" style="rhombus;whiteSpace=wrap;html=1;labelBackgroundColor=#FFFFFF;fontColor=#000000;" parent="WIyWlLk6GJQsqaUBKTNV-1" vertex="1">
          <mxGeometry x="1750" y="330" width="130" height="80" as="geometry" />
        </mxCell>
        <mxCell id="afDxlxrPL6SV1MimDMB3-14" value="Y" style="edgeStyle=orthogonalEdgeStyle;rounded=0;orthogonalLoop=1;jettySize=auto;html=1;entryX=0.5;entryY=0;entryDx=0;entryDy=0;" parent="WIyWlLk6GJQsqaUBKTNV-1" source="afDxlxrPL6SV1MimDMB3-9" target="afDxlxrPL6SV1MimDMB3-12" edge="1">
          <mxGeometry relative="1" as="geometry">
            <Array as="points">
              <mxPoint x="1560" y="450" />
            </Array>
          </mxGeometry>
        </mxCell>
        <mxCell id="afDxlxrPL6SV1MimDMB3-16" value="N" style="edgeStyle=orthogonalEdgeStyle;rounded=0;orthogonalLoop=1;jettySize=auto;html=1;exitX=1;exitY=0.5;exitDx=0;exitDy=0;" parent="WIyWlLk6GJQsqaUBKTNV-1" source="afDxlxrPL6SV1MimDMB3-9" target="afDxlxrPL6SV1MimDMB3-15" edge="1">
          <mxGeometry relative="1" as="geometry" />
        </mxCell>
        <mxCell id="afDxlxrPL6SV1MimDMB3-9" value="&lt;div style=&quot;font-family: Consolas, &amp;quot;Courier New&amp;quot;, monospace; font-size: 14px; line-height: 19px;&quot;&gt;OCh√ NCh√&lt;/div&gt;" style="rhombus;whiteSpace=wrap;html=1;labelBackgroundColor=#FFFFFF;fontColor=#000000;" parent="WIyWlLk6GJQsqaUBKTNV-1" vertex="1">
          <mxGeometry x="1620" y="410" width="130" height="80" as="geometry" />
        </mxCell>
        <mxCell id="afDxlxrPL6SV1MimDMB3-83" style="edgeStyle=orthogonalEdgeStyle;rounded=0;orthogonalLoop=1;jettySize=auto;html=1;entryX=0.5;entryY=0;entryDx=0;entryDy=0;" parent="WIyWlLk6GJQsqaUBKTNV-1" source="afDxlxrPL6SV1MimDMB3-12" target="gv2cUn-TJVEhlQLOBf1I-1" edge="1">
          <mxGeometry relative="1" as="geometry">
            <Array as="points">
              <mxPoint x="1560" y="1720" />
              <mxPoint x="-860" y="1720" />
              <mxPoint x="-860" y="40" />
              <mxPoint x="390" y="40" />
            </Array>
          </mxGeometry>
        </mxCell>
        <mxCell id="afDxlxrPL6SV1MimDMB3-12" value="updateChildren" style="rounded=1;whiteSpace=wrap;html=1;" parent="WIyWlLk6GJQsqaUBKTNV-1" vertex="1">
          <mxGeometry x="1500" y="500" width="120" height="60" as="geometry" />
        </mxCell>
        <mxCell id="afDxlxrPL6SV1MimDMB3-20" value="Y" style="edgeStyle=orthogonalEdgeStyle;rounded=0;orthogonalLoop=1;jettySize=auto;html=1;entryX=0.5;entryY=0;entryDx=0;entryDy=0;" parent="WIyWlLk6GJQsqaUBKTNV-1" source="afDxlxrPL6SV1MimDMB3-15" target="afDxlxrPL6SV1MimDMB3-19" edge="1">
          <mxGeometry relative="1" as="geometry">
            <Array as="points">
              <mxPoint x="1665" y="530" />
            </Array>
          </mxGeometry>
        </mxCell>
        <mxCell id="afDxlxrPL6SV1MimDMB3-21" value="N" style="edgeStyle=orthogonalEdgeStyle;rounded=0;orthogonalLoop=1;jettySize=auto;html=1;entryX=0.5;entryY=0;entryDx=0;entryDy=0;" parent="WIyWlLk6GJQsqaUBKTNV-1" source="afDxlxrPL6SV1MimDMB3-15" target="afDxlxrPL6SV1MimDMB3-18" edge="1">
          <mxGeometry relative="1" as="geometry">
            <Array as="points">
              <mxPoint x="1890" y="530" />
            </Array>
          </mxGeometry>
        </mxCell>
        <mxCell id="afDxlxrPL6SV1MimDMB3-15" value="&lt;div style=&quot;font-family: Consolas, &amp;quot;Courier New&amp;quot;, monospace; font-size: 14px; line-height: 19px;&quot;&gt;OCh× NCh√&lt;/div&gt;" style="rhombus;whiteSpace=wrap;html=1;labelBackgroundColor=#FFFFFF;fontColor=#000000;" parent="WIyWlLk6GJQsqaUBKTNV-1" vertex="1">
          <mxGeometry x="1725" y="490" width="130" height="80" as="geometry" />
        </mxCell>
        <mxCell id="afDxlxrPL6SV1MimDMB3-24" value="Y" style="edgeStyle=orthogonalEdgeStyle;rounded=0;orthogonalLoop=1;jettySize=auto;html=1;entryX=0.5;entryY=0;entryDx=0;entryDy=0;exitX=0;exitY=0.5;exitDx=0;exitDy=0;" parent="WIyWlLk6GJQsqaUBKTNV-1" source="afDxlxrPL6SV1MimDMB3-18" target="afDxlxrPL6SV1MimDMB3-23" edge="1">
          <mxGeometry relative="1" as="geometry">
            <Array as="points">
              <mxPoint x="1775" y="610" />
            </Array>
          </mxGeometry>
        </mxCell>
        <mxCell id="afDxlxrPL6SV1MimDMB3-31" value="N" style="edgeStyle=orthogonalEdgeStyle;rounded=0;orthogonalLoop=1;jettySize=auto;html=1;entryX=0.5;entryY=0;entryDx=0;entryDy=0;" parent="WIyWlLk6GJQsqaUBKTNV-1" source="afDxlxrPL6SV1MimDMB3-18" target="afDxlxrPL6SV1MimDMB3-30" edge="1">
          <mxGeometry relative="1" as="geometry">
            <Array as="points">
              <mxPoint x="2000" y="610" />
            </Array>
          </mxGeometry>
        </mxCell>
        <mxCell id="afDxlxrPL6SV1MimDMB3-18" value="&lt;div style=&quot;font-family: Consolas, &amp;quot;Courier New&amp;quot;, monospace; font-size: 14px; line-height: 19px;&quot;&gt;OCh√ NCh×&lt;/div&gt;" style="rhombus;whiteSpace=wrap;html=1;labelBackgroundColor=#FFFFFF;fontColor=#000000;" parent="WIyWlLk6GJQsqaUBKTNV-1" vertex="1">
          <mxGeometry x="1825" y="570" width="130" height="80" as="geometry" />
        </mxCell>
        <mxCell id="afDxlxrPL6SV1MimDMB3-19" value="addVnodes" style="rounded=1;whiteSpace=wrap;html=1;fillColor=#e3c800;fontColor=#000000;strokeColor=#B09500;" parent="WIyWlLk6GJQsqaUBKTNV-1" vertex="1">
          <mxGeometry x="1605" y="580" width="120" height="60" as="geometry" />
        </mxCell>
        <mxCell id="afDxlxrPL6SV1MimDMB3-23" value="removeVnodes" style="rounded=1;whiteSpace=wrap;html=1;fillColor=#e3c800;fontColor=#000000;strokeColor=#B09500;" parent="WIyWlLk6GJQsqaUBKTNV-1" vertex="1">
          <mxGeometry x="1715" y="660" width="120" height="60" as="geometry" />
        </mxCell>
        <mxCell id="afDxlxrPL6SV1MimDMB3-29" value="Y" style="edgeStyle=orthogonalEdgeStyle;rounded=0;orthogonalLoop=1;jettySize=auto;html=1;entryX=1;entryY=0.5;entryDx=0;entryDy=0;" parent="WIyWlLk6GJQsqaUBKTNV-1" source="afDxlxrPL6SV1MimDMB3-26" target="afDxlxrPL6SV1MimDMB3-33" edge="1">
          <mxGeometry relative="1" as="geometry">
            <mxPoint x="2085" y="480" as="targetPoint" />
            <Array as="points">
              <mxPoint x="2100" y="440" />
              <mxPoint x="2100" y="810" />
            </Array>
          </mxGeometry>
        </mxCell>
        <mxCell id="afDxlxrPL6SV1MimDMB3-26" value="&lt;div style=&quot;font-family: Consolas, &amp;quot;Courier New&amp;quot;, monospace; font-size: 14px; line-height: 19px;&quot;&gt;&lt;span style=&quot;background-color: rgb(255, 255, 255);&quot;&gt;NNode.text&lt;/span&gt;&lt;/div&gt;&lt;div style=&quot;font-family: Consolas, &amp;quot;Courier New&amp;quot;, monospace; font-size: 14px; line-height: 19px;&quot;&gt;&lt;span style=&quot;background-color: rgb(255, 255, 255);&quot;&gt;!==&lt;/span&gt;&lt;/div&gt;&lt;div style=&quot;font-family: Consolas, &amp;quot;Courier New&amp;quot;, monospace; font-size: 14px; line-height: 19px;&quot;&gt;&lt;span style=&quot;background-color: rgb(255, 255, 255);&quot;&gt;ONode.text&lt;/span&gt;&lt;/div&gt;" style="rhombus;whiteSpace=wrap;html=1;labelBackgroundColor=#FFFFFF;fontColor=#000000;" parent="WIyWlLk6GJQsqaUBKTNV-1" vertex="1">
          <mxGeometry x="1865" y="400" width="130" height="80" as="geometry" />
        </mxCell>
        <mxCell id="afDxlxrPL6SV1MimDMB3-34" style="edgeStyle=orthogonalEdgeStyle;rounded=0;orthogonalLoop=1;jettySize=auto;html=1;entryX=0.5;entryY=0;entryDx=0;entryDy=0;" parent="WIyWlLk6GJQsqaUBKTNV-1" source="afDxlxrPL6SV1MimDMB3-30" target="afDxlxrPL6SV1MimDMB3-33" edge="1">
          <mxGeometry relative="1" as="geometry" />
        </mxCell>
        <mxCell id="afDxlxrPL6SV1MimDMB3-30" value="&lt;div style=&quot;font-family: Consolas, &amp;quot;Courier New&amp;quot;, monospace; font-size: 14px; line-height: 19px;&quot;&gt;NNode.text ×&lt;/div&gt;&lt;div style=&quot;font-family: Consolas, &amp;quot;Courier New&amp;quot;, monospace; font-size: 14px; line-height: 19px;&quot;&gt;ONode.text √&lt;/div&gt;" style="rhombus;whiteSpace=wrap;html=1;labelBackgroundColor=#FFFFFF;fontColor=#000000;" parent="WIyWlLk6GJQsqaUBKTNV-1" vertex="1">
          <mxGeometry x="1935" y="650" width="130" height="80" as="geometry" />
        </mxCell>
        <mxCell id="afDxlxrPL6SV1MimDMB3-33" value="setTextContent" style="rounded=0;whiteSpace=wrap;html=1;fillColor=#e3c800;fontColor=#000000;strokeColor=#B09500;" parent="WIyWlLk6GJQsqaUBKTNV-1" vertex="1">
          <mxGeometry x="1940" y="780" width="120" height="60" as="geometry" />
        </mxCell>
        <mxCell id="afDxlxrPL6SV1MimDMB3-42" style="edgeStyle=orthogonalEdgeStyle;rounded=0;orthogonalLoop=1;jettySize=auto;html=1;entryX=0.5;entryY=0;entryDx=0;entryDy=0;" parent="WIyWlLk6GJQsqaUBKTNV-1" source="afDxlxrPL6SV1MimDMB3-40" target="afDxlxrPL6SV1MimDMB3-41" edge="1">
          <mxGeometry relative="1" as="geometry" />
        </mxCell>
        <mxCell id="afDxlxrPL6SV1MimDMB3-70" style="edgeStyle=orthogonalEdgeStyle;rounded=0;orthogonalLoop=1;jettySize=auto;html=1;entryX=0.5;entryY=0;entryDx=0;entryDy=0;exitX=1;exitY=0.5;exitDx=0;exitDy=0;" parent="WIyWlLk6GJQsqaUBKTNV-1" source="afDxlxrPL6SV1MimDMB3-40" target="gv2cUn-TJVEhlQLOBf1I-128" edge="1">
          <mxGeometry relative="1" as="geometry">
            <Array as="points">
              <mxPoint x="1320" y="1160" />
              <mxPoint x="1320" y="40" />
              <mxPoint x="1945" y="40" />
            </Array>
          </mxGeometry>
        </mxCell>
        <mxCell id="afDxlxrPL6SV1MimDMB3-40" value="&lt;div style=&quot;font-family: Consolas, &amp;quot;Courier New&amp;quot;, monospace; font-size: 14px; line-height: 19px;&quot;&gt;&lt;span style=&quot;background-color: rgb(255, 255, 255);&quot;&gt;patchVnode(...)&lt;/span&gt;&lt;/div&gt;" style="whiteSpace=wrap;html=1;fontColor=#000000;labelBackgroundColor=#FFFFFF;" parent="WIyWlLk6GJQsqaUBKTNV-1" vertex="1">
          <mxGeometry x="850" y="1130" width="120" height="60" as="geometry" />
        </mxCell>
        <mxCell id="afDxlxrPL6SV1MimDMB3-47" style="edgeStyle=orthogonalEdgeStyle;rounded=0;orthogonalLoop=1;jettySize=auto;html=1;entryX=0.5;entryY=0;entryDx=0;entryDy=0;" parent="WIyWlLk6GJQsqaUBKTNV-1" source="afDxlxrPL6SV1MimDMB3-41" target="afDxlxrPL6SV1MimDMB3-46" edge="1">
          <mxGeometry relative="1" as="geometry" />
        </mxCell>
        <mxCell id="afDxlxrPL6SV1MimDMB3-41" value="&lt;div style=&quot;font-family: Consolas, &amp;quot;Courier New&amp;quot;, monospace; font-size: 14px; line-height: 19px;&quot;&gt;&lt;span style=&quot;&quot;&gt;insertBefore()&lt;/span&gt;&lt;/div&gt;" style="whiteSpace=wrap;html=1;fontColor=#000000;labelBackgroundColor=none;fillColor=#e3c800;strokeColor=#B09500;" parent="WIyWlLk6GJQsqaUBKTNV-1" vertex="1">
          <mxGeometry x="850" y="1280" width="120" height="60" as="geometry" />
        </mxCell>
        <mxCell id="afDxlxrPL6SV1MimDMB3-77" style="edgeStyle=orthogonalEdgeStyle;rounded=0;orthogonalLoop=1;jettySize=auto;html=1;exitX=0.5;exitY=1;exitDx=0;exitDy=0;" parent="WIyWlLk6GJQsqaUBKTNV-1" source="afDxlxrPL6SV1MimDMB3-46" edge="1">
          <mxGeometry relative="1" as="geometry">
            <mxPoint x="390" y="220" as="targetPoint" />
            <Array as="points">
              <mxPoint x="910" y="1580" />
              <mxPoint x="-670" y="1580" />
              <mxPoint x="-670" y="220" />
            </Array>
          </mxGeometry>
        </mxCell>
        <mxCell id="afDxlxrPL6SV1MimDMB3-46" value="involved node idx moved.&lt;br&gt;1. OStart→, ←NEnd&lt;br&gt;2. NStart→, ←OEnd&lt;br&gt;3. NStart→" style="rounded=0;whiteSpace=wrap;html=1;labelBackgroundColor=none;fillColor=#d5e8d4;gradientColor=#97d077;strokeColor=#82b366;" parent="WIyWlLk6GJQsqaUBKTNV-1" vertex="1">
          <mxGeometry x="830" y="1420" width="160" height="60" as="geometry" />
        </mxCell>
      </root>
    </mxGraphModel>
  </diagram>
  <diagram id="LmafkUU3dox103_ZCiky" name="Compile">
    <mxGraphModel dx="2719" dy="1178" grid="1" gridSize="10" guides="1" tooltips="1" connect="1" arrows="1" fold="1" page="1" pageScale="1" pageWidth="827" pageHeight="1169" math="0" shadow="0">
      <root>
        <mxCell id="0" />
        <mxCell id="1" parent="0" />
        <mxCell id="O0MiDGa6sDlfNX1t2Lfe-2" style="edgeStyle=orthogonalEdgeStyle;rounded=0;orthogonalLoop=1;jettySize=auto;html=1;entryX=0;entryY=0.5;entryDx=0;entryDy=0;" edge="1" parent="1" source="O0MiDGa6sDlfNX1t2Lfe-1" target="O0MiDGa6sDlfNX1t2Lfe-3">
          <mxGeometry relative="1" as="geometry">
            <mxPoint x="530" y="225" as="targetPoint" />
          </mxGeometry>
        </mxCell>
        <mxCell id="O0MiDGa6sDlfNX1t2Lfe-1" value="SFC 文件解析&lt;br&gt;vue-template-compiler 负责解析&lt;br&gt;提供&amp;nbsp;&lt;a style=&quot;background: 0px 0px rgb(255, 255, 255); box-sizing: border-box; outline: 0px; color: rgb(6, 174, 213); font-family: &amp;quot;Exo 2&amp;quot;, Helvetica, &amp;quot;Pingfang SC&amp;quot;, &amp;quot;Hiragino Sans GB&amp;quot;, &amp;quot;Microsoft YaHei&amp;quot;, &amp;quot;WenQuanYi Micro Hei&amp;quot;, sans-serif; font-size: 16px;&quot; href=&quot;https://github.com/vuejs/vue/tree/dev/packages/vue-template-compiler#compilerparsecomponentfile-options&quot; rel=&quot;nofollow&quot; target=&quot;_blank&quot;&gt;&lt;code style=&quot;margin: 0px; padding: 0.2em 0px; font-family: Consolas, &amp;quot;Liberation Mono&amp;quot;, Menlo, Courier, monospace; font-size: 12px; box-sizing: border-box; background-color: rgb(248, 248, 248); border-radius: 3px; color: rgb(211, 64, 20);&quot;&gt;parseComponent(file, [options])&lt;/code&gt;&lt;/a&gt;&amp;nbsp;方法&lt;br&gt;packages/compiler-sfc/src/parseComponent &amp;gt; parseComponent" style="rounded=0;whiteSpace=wrap;html=1;align=left;fillColor=#e1d5e7;strokeColor=#9673a6;" vertex="1" parent="1">
          <mxGeometry x="60" y="190" width="410" height="110" as="geometry" />
        </mxCell>
        <mxCell id="O0MiDGa6sDlfNX1t2Lfe-7" style="edgeStyle=orthogonalEdgeStyle;rounded=0;orthogonalLoop=1;jettySize=auto;html=1;entryX=0.5;entryY=0;entryDx=0;entryDy=0;fontColor=#000000;" edge="1" parent="1" source="O0MiDGa6sDlfNX1t2Lfe-3" target="O0MiDGa6sDlfNX1t2Lfe-6">
          <mxGeometry relative="1" as="geometry" />
        </mxCell>
        <mxCell id="O0MiDGa6sDlfNX1t2Lfe-3" value="&lt;span style=&quot;&quot;&gt;将 .vue 文件解析为&amp;nbsp;&lt;span style=&quot;font-family: Menlo, Monaco, &amp;quot;Courier New&amp;quot;, monospace;&quot;&gt;SFCDescriptor 实例&lt;br&gt;&lt;/span&gt;&lt;/span&gt;packages/compiler-sfc/src/parseComponent &amp;gt;&amp;nbsp;&lt;span style=&quot;font-family: Menlo, Monaco, &amp;quot;Courier New&amp;quot;, monospace; background-color: initial;&quot;&gt;SFCDescriptor&lt;/span&gt;&lt;span style=&quot;&quot;&gt;&lt;span style=&quot;font-family: Menlo, Monaco, &amp;quot;Courier New&amp;quot;, monospace;&quot;&gt;&lt;br&gt;&lt;/span&gt;&lt;/span&gt;&lt;div style=&quot;color: rgb(212, 212, 212); font-family: Menlo, Monaco, &amp;quot;Courier New&amp;quot;, monospace; line-height: 18px;&quot;&gt;&lt;div&gt;&lt;span style=&quot;color: #4ec9b0;&quot;&gt;SFCDescriptor&lt;/span&gt; {&lt;/div&gt;&lt;div&gt;  &lt;span style=&quot;color: #9cdcfe;&quot;&gt;source&lt;/span&gt;: &lt;span style=&quot;color: #4ec9b0;&quot;&gt;string&lt;/span&gt;&lt;/div&gt;&lt;div&gt;  &lt;span style=&quot;color: #9cdcfe;&quot;&gt;filename&lt;/span&gt;: &lt;span style=&quot;color: #4ec9b0;&quot;&gt;string&lt;/span&gt;&lt;/div&gt;&lt;div&gt;  &lt;span style=&quot;color: #9cdcfe;&quot;&gt;template&lt;/span&gt;: &lt;span style=&quot;color: #4ec9b0;&quot;&gt;SFCBlock&lt;/span&gt; | &lt;span style=&quot;color: #4ec9b0;&quot;&gt;null&lt;/span&gt;&lt;/div&gt;&lt;div&gt;  &lt;span style=&quot;color: #9cdcfe;&quot;&gt;script&lt;/span&gt;: &lt;span style=&quot;color: #4ec9b0;&quot;&gt;SFCScriptBlock&lt;/span&gt; | &lt;span style=&quot;color: #4ec9b0;&quot;&gt;null&lt;/span&gt;&lt;/div&gt;&lt;div&gt;  &lt;span style=&quot;color: #9cdcfe;&quot;&gt;scriptSetup&lt;/span&gt;: &lt;span style=&quot;color: #4ec9b0;&quot;&gt;SFCScriptBlock&lt;/span&gt; | &lt;span style=&quot;color: #4ec9b0;&quot;&gt;null&lt;/span&gt;&lt;/div&gt;&lt;div&gt;  &lt;span style=&quot;color: #9cdcfe;&quot;&gt;styles&lt;/span&gt;: &lt;span style=&quot;color: #4ec9b0;&quot;&gt;SFCBlock&lt;/span&gt;[]&lt;/div&gt;&lt;div&gt;  &lt;span style=&quot;color: #9cdcfe;&quot;&gt;customBlocks&lt;/span&gt;: &lt;span style=&quot;color: #4ec9b0;&quot;&gt;SFCCustomBlock&lt;/span&gt;[]&lt;/div&gt;&lt;div&gt;  &lt;span style=&quot;color: #9cdcfe;&quot;&gt;errors&lt;/span&gt;: &lt;span style=&quot;color: #4ec9b0;&quot;&gt;WarningMessage&lt;/span&gt;[]&lt;/div&gt;&lt;div&gt;  &lt;span style=&quot;color: #dcdcaa;&quot;&gt;shouldForceReload&lt;/span&gt;: (&lt;span style=&quot;color: #9cdcfe;&quot;&gt;prevImports&lt;/span&gt;: &lt;span style=&quot;color: #4ec9b0;&quot;&gt;Record&lt;/span&gt;&amp;lt;&lt;span style=&quot;color: #4ec9b0;&quot;&gt;string&lt;/span&gt;, &lt;span style=&quot;color: #4ec9b0;&quot;&gt;ImportBinding&lt;/span&gt;&amp;gt;) &lt;span style=&quot;color: #569cd6;&quot;&gt;=&amp;gt;&lt;/span&gt; &lt;span style=&quot;color: #4ec9b0;&quot;&gt;boolean&lt;/span&gt;&lt;/div&gt;&lt;div&gt;}&lt;/div&gt;&lt;/div&gt;" style="rounded=0;whiteSpace=wrap;html=1;align=left;fillColor=#e1d5e7;labelBackgroundColor=none;labelBorderColor=none;strokeColor=#9673a6;" vertex="1" parent="1">
          <mxGeometry x="600" y="112" width="540" height="265" as="geometry" />
        </mxCell>
        <mxCell id="O0MiDGa6sDlfNX1t2Lfe-6" value="调用 parseHTML&lt;br&gt;src/compiler/parser/html-parser &amp;gt; parseHTML&lt;br&gt;通过正则表达式一点点匹配并裁剪 template 的 HTML 部分&lt;br&gt;将 template 部分解析成 AST" style="rounded=0;labelBackgroundColor=none;labelBorderColor=none;fontColor=#000000;fillColor=default;whiteSpace=wrap;html=1;" vertex="1" parent="1">
          <mxGeometry x="650" y="452" width="440" height="230" as="geometry" />
        </mxCell>
        <mxCell id="O0MiDGa6sDlfNX1t2Lfe-9" style="edgeStyle=orthogonalEdgeStyle;rounded=0;orthogonalLoop=1;jettySize=auto;html=1;entryX=0;entryY=0.5;entryDx=0;entryDy=0;fontColor=#000000;" edge="1" parent="1" source="O0MiDGa6sDlfNX1t2Lfe-8" target="O0MiDGa6sDlfNX1t2Lfe-1">
          <mxGeometry relative="1" as="geometry" />
        </mxCell>
        <mxCell id="O0MiDGa6sDlfNX1t2Lfe-8" value="parse&lt;br&gt;packages/compiler-sfc/src/parse &amp;gt; parse" style="rounded=0;whiteSpace=wrap;html=1;labelBackgroundColor=none;labelBorderColor=none;fillColor=#e1d5e7;strokeColor=#9673a6;" vertex="1" parent="1">
          <mxGeometry x="-400" y="182.5" width="280" height="125" as="geometry" />
        </mxCell>
        <mxCell id="O0MiDGa6sDlfNX1t2Lfe-11" value="插件 conpiler-sfc 负责将 SFC 文件转换为 SFCDescriptor 实例（纯 JS 对象），为 Vue 项目本体中的 compiler 组件提供基础服务" style="text;html=1;strokeColor=none;fillColor=none;align=center;verticalAlign=middle;whiteSpace=wrap;rounded=0;labelBackgroundColor=none;labelBorderColor=none;fontColor=#000000;" vertex="1" parent="1">
          <mxGeometry x="230" y="60" width="210" height="100" as="geometry" />
        </mxCell>
      </root>
    </mxGraphModel>
  </diagram>
  <diagram id="JdSO_Bw4TzbFCx77Tyez" name="Promise">
    <mxGraphModel dx="946" dy="589" grid="1" gridSize="10" guides="1" tooltips="1" connect="1" arrows="1" fold="1" page="1" pageScale="1" pageWidth="827" pageHeight="1169" math="0" shadow="0">
      <root>
        <mxCell id="0" />
        <mxCell id="1" parent="0" />
      </root>
    </mxGraphModel>
  </diagram>
</mxfile>
